<svg width="980" height="551" xmlns="http://www.w3.org/2000/svg" xmlns:xlink="http://www.w3.org/1999/xlink">
<path fill="#ff595e" d="M 424.10 443.71 Q 424.10 443.71 422.22 446.30 420.35 448.89 416.92 450.77 413.50 452.66 408.60 454.41 403.69 456.16 396.93 457.68 390.18 459.21 380.99 460.45 371.81 461.69 360.51 461.87 349.20 462.04 337.76 460.44 326.33 458.83 314.97 455.05 303.61 451.28 293.87 446.17 284.14 441.05 276.96 435.52 269.78 429.99 265.61 425.41 261.44 420.83 258.82 414.73 256.19 408.64 255.64 401.98 255.08 395.32 257.52 388.81 259.96 382.30 265.55 376.48 271.14 370.65 277.98 366.37 284.81 362.08 292.77 359.40 300.73 356.71 307.24 355.61 313.75 354.51 319.85 354.75 325.94 354.98 330.71 356.43 335.48 357.88 339.50 360.50 343.53 363.12 346.55 366.36 349.58 369.60 351.80 373.09 354.02 376.58 355.60 380.11 357.19 383.64 358.72 387.67 360.25 391.70 362.06 396.14 363.86 400.58 366.35 405.74 368.84 410.89 372.22 416.69 375.60 422.48 380.80 428.73 386.01 434.98 392.81 441.13 399.60 447.27 408.58 453.35 417.56 459.43 424.78 463.48 431.99 467.53 437.68 470.06 443.38 472.59 448.03 474.18 452.68 475.78 456.56 476.61 460.45 477.44 464.72 477.46 469.00 477.48 473.23 475.63 477.47 473.78 483.92 467.23 490.38 460.69 497.29 450.87 504.20 441.05 510.82 428.51 517.43 415.97 521.99 405.94 526.54 395.92 529.20 388.64 531.86 381.37 533.17 376.63 534.47 371.89 535.02 368.60 535.57 365.31 536.90 362.42 538.23 359.53 538.24 359.53 538.24 359.53 538.25 359.53 538.25 359.53 538.88 362.76 539.52 365.98 538.92 369.46 538.32 372.95 536.97 377.85 535.62 382.75 532.90 390.16 530.19 397.57 525.58 407.70 520.97 417.83 514.22 430.59 507.47 443.35 500.34 453.43 493.21 463.51 486.16 470.46 479.11 477.40 474.10 479.43 469.10 481.45 464.36 481.40 459.62 481.35 455.50 480.46 451.39 479.56 446.57 477.90 441.75 476.25 435.89 473.63 430.03 471.02 422.68 466.88 415.32 462.74 406.12 456.49 396.92 450.24 389.93 443.89 382.94 437.54 377.54 431.02 372.15 424.50 368.69 418.57 365.24 412.63 362.70 407.36 360.16 402.09 358.33 397.61 356.51 393.12 355.02 389.19 353.54 385.27 352.08 381.99 350.63 378.71 348.63 375.50 346.64 372.30 343.97 369.37 341.30 366.44 337.77 364.06 334.25 361.68 330.00 360.33 325.74 358.98 320.07 358.72 314.39 358.46 308.19 359.48 301.99 360.51 294.45 363.00 286.90 365.49 280.44 369.48 273.98 373.47 268.80 378.66 263.62 383.85 261.33 389.52 259.04 395.18 259.47 401.17 259.90 407.15 262.17 412.68 264.44 418.21 268.34 422.52 272.23 426.83 279.12 432.17 286.01 437.52 295.45 442.50 304.88 447.49 315.89 451.18 326.90 454.87 338.02 456.46 349.15 458.04 360.22 457.88 371.28 457.72 380.29 456.52 389.30 455.31 395.83 453.85 402.36 452.38 406.97 450.76 411.59 449.14 414.79 447.40 418.00 445.65 421.04 444.67 424.09 443.69 424.09 443.70 Z" data-drauu_index="0"></path><path fill="#ff595e" d="M 698.59 436.85 Q 698.59 436.85 694.43 435.97 690.26 435.08 682.35 431.44 674.45 427.81 658.11 422.29 641.77 416.78 614.14 410.48 586.51 404.18 550.76 399.04 515.02 393.90 478.40 391.20 441.79 388.49 420.37 387.37 398.95 386.25 388.56 385.84 378.17 385.44 377.92 385.52 377.66 385.59 377.42 385.55 377.18 385.52 376.96 385.42 376.74 385.33 376.54 385.18 376.35 385.04 376.20 384.85 376.05 384.67 375.94 384.45 375.84 384.23 375.79 383.99 375.74 383.76 375.75 383.52 375.76 383.28 375.83 383.05 375.89 382.81 376.01 382.60 376.13 382.40 376.30 382.22 376.47 382.05 376.67 381.92 376.87 381.79 377.10 381.71 377.33 381.64 377.57 381.62 377.81 381.60 392.66 381.18 407.51 380.77 435.96 378.11 464.41 375.46 492.47 371.26 520.53 367.06 551.55 360.98 582.58 354.90 599.89 350.76 617.21 346.63 625.70 343.59 634.19 340.55 637.54 339.00 640.89 337.45 641.58 336.68 642.28 335.91 642.90 334.58 643.51 333.24 647.16 330.12 650.80 327.00 656.97 321.84 663.15 316.69 670.89 309.27 678.63 301.86 685.73 293.41 692.83 284.97 696.91 277.48 700.99 269.98 700.87 261.47 700.74 252.95 693.96 244.37 687.19 235.79 678.85 229.83 670.51 223.87 664.05 220.51 657.59 217.15 654.05 215.53 650.51 213.90 648.04 212.91 645.57 211.92 645.40 211.60 645.22 211.27 645.01 211.15 644.80 211.04 644.62 210.88 644.44 210.72 644.31 210.52 644.17 210.32 644.09 210.09 644.00 209.87 643.97 209.63 643.95 209.39 643.98 209.15 644.01 208.91 644.09 208.68 644.18 208.46 644.32 208.26 644.46 208.06 644.64 207.91 644.82 207.75 645.04 207.64 645.25 207.53 645.48 207.47 645.72 207.41 645.96 207.42 646.20 207.42 646.43 207.48 646.67 207.54 649.77 207.21 652.88 206.89 659.09 206.53 665.29 206.18 670.91 205.74 676.52 205.30 681.12 204.38 685.71 203.47 689.12 202.12 692.53 200.77 693.74 199.89 694.96 199.01 694.57 196.73 694.19 194.45 690.02 190.82 685.85 187.20 678.21 182.92 670.57 178.65 662.30 175.24 654.03 171.82 648.48 170.01 642.93 168.19 639.41 167.22 635.89 166.24 633.51 164.60 631.13 162.96 631.14 162.96 631.14 162.95 631.14 162.95 631.14 162.94 634.05 162.67 636.96 162.39 640.56 163.39 644.17 164.39 649.86 166.26 655.55 168.13 664.04 171.64 672.53 175.16 680.55 179.71 688.56 184.26 693.20 188.84 697.85 193.43 698.00 197.03 698.14 200.62 696.10 202.54 694.05 204.46 690.28 205.92 686.50 207.39 681.67 208.34 676.84 209.29 671.18 209.73 665.52 210.18 659.35 210.53 653.17 210.88 649.20 211.07 645.23 211.27 645.01 211.15 644.80 211.04 644.62 210.88 644.44 210.72 644.31 210.52 644.17 210.32 644.09 210.09 644.00 209.87 643.97 209.63 643.95 209.39 643.98 209.15 644.01 208.91 644.09 208.68 644.18 208.46 644.32 208.26 644.46 208.07 644.64 207.91 644.82 207.75 645.04 207.64 645.25 207.53 645.48 207.47 645.72 207.41 645.96 207.42 646.20 207.42 646.43 207.48 646.67 207.54 647.02 208.01 647.37 208.48 649.77 209.37 652.18 210.27 655.81 211.94 659.44 213.60 666.14 217.11 672.84 220.62 681.59 226.97 690.33 233.32 697.45 242.88 704.57 252.44 704.57 262.05 704.57 271.66 700.23 279.59 695.90 287.53 688.65 296.14 681.39 304.75 673.55 312.25 665.71 319.76 659.53 324.92 653.35 330.08 650.19 332.58 647.04 335.07 646.08 336.89 645.13 338.70 643.88 339.87 642.64 341.04 639.09 342.68 635.54 344.32 626.84 347.42 618.14 350.52 600.74 354.67 583.35 358.82 552.23 364.92 521.12 371.01 492.95 375.23 464.78 379.44 436.20 382.10 407.62 384.76 392.64 385.18 377.66 385.59 377.42 385.55 377.18 385.52 376.96 385.42 376.74 385.33 376.54 385.18 376.35 385.04 376.20 384.85 376.05 384.67 375.94 384.45 375.84 384.23 375.79 384.00 375.74 383.76 375.75 383.52 375.76 383.28 375.83 383.05 375.89 382.81 376.01 382.60 376.13 382.40 376.30 382.22 376.47 382.05 376.67 381.92 376.87 381.79 377.10 381.71 377.33 381.64 377.57 381.62 377.81 381.60 378.03 381.52 378.25 381.45 388.71 381.85 399.16 382.25 420.62 383.38 442.08 384.50 478.83 387.22 515.59 389.94 551.49 395.11 587.40 400.28 615.22 406.64 643.05 412.99 659.58 418.58 676.12 424.17 684.05 427.82 691.98 431.47 695.29 434.15 698.60 436.83 698.60 436.84 Z" data-drauu_index="1"></path><path fill="#ff595e" d="M 590.63 3.15 Q 590.63 3.15 590.89 5.40 591.16 7.64 589.86 11.85 588.57 16.06 587.37 20.32 586.17 24.58 585.27 27.74 584.37 30.90 583.49 34.36 582.61 37.82 581.29 39.22 579.97 40.62 579.96 40.62 579.96 40.62 579.95 40.62 579.95 40.62 579.40 38.76 578.86 36.91 579.69 33.36 580.52 29.81 581.42 26.65 582.32 23.49 583.53 19.19 584.75 14.88 586.07 10.61 587.40 6.33 589.00 4.74 590.61 3.15 590.62 3.15 Z" data-drauu_index="2"></path>
</svg>